<svg xmlns="http://www.w3.org/2000/svg" width="192" height="245" fill="none"><mask id="a" width="274" height="274" x="-82" y="0" maskUnits="userSpaceOnUse" style="mask-type:alpha"><circle cx="55" cy="137" r="137" fill="#fff" fill-opacity=".5"/></mask><g fill="#fff" fill-opacity=".5" mask="url(#a)"><circle cx="23.5" cy="6" r="6"/><circle cx="23.5" cy="43.2" r="6"/><circle cx="23.5" cy="80.5" r="6"/><circle cx="23.5" cy="117.7" r="6"/><circle cx="23.5" cy="154.9" r="6"/><circle cx="23.5" cy="192.2" r="6"/><circle cx="23.5" cy="229.4" r="6"/><circle cx="57.1" cy="6" r="6"/><circle cx="57.1" cy="43.2" r="6"/><circle cx="57.1" cy="80.5" r="6"/><circle cx="57.1" cy="117.7" r="6"/><circle cx="57.1" cy="154.9" r="6"/><circle cx="57.1" cy="192.2" r="6"/><circle cx="57.1" cy="229.4" r="6"/><circle cx="90.8" cy="6" r="6"/><circle cx="90.8" cy="43.2" r="6"/><circle cx="90.8" cy="80.5" r="6"/><circle cx="90.8" cy="117.7" r="6"/><circle cx="90.8" cy="154.9" r="6"/><circle cx="90.8" cy="192.2" r="6"/><circle cx="90.8" cy="229.4" r="6"/><circle cx="124.4" cy="6" r="6"/><circle cx="124.4" cy="43.2" r="6"/><circle cx="124.4" cy="80.5" r="6"/><circle cx="124.4" cy="117.7" r="6"/><circle cx="124.4" cy="154.9" r="6"/><circle cx="124.4" cy="192.2" r="6"/><circle cx="124.4" cy="229.4" r="6"/><circle cx="158" cy="6" r="6"/><circle cx="158" cy="43.2" r="6"/><circle cx="158" cy="80.5" r="6"/><circle cx="158" cy="117.7" r="6"/><circle cx="158" cy="154.9" r="6"/><circle cx="158" cy="192.2" r="6"/><circle cx="158" cy="229.4" r="6"/><circle cx="191.6" cy="6" r="6"/><circle cx="191.6" cy="43.2" r="6"/><circle cx="191.6" cy="80.5" r="6"/><circle cx="191.6" cy="117.7" r="6"/><circle cx="191.6" cy="154.9" r="6"/><circle cx="191.6" cy="192.2" r="6"/><circle cx="191.6" cy="229.4" r="6"/></g></svg>